<svg width="1218" height="224" viewBox="0 0 1218 224" fill="none" xmlns="http://www.w3.org/2000/svg">
<g clip-path="url(#clip0_92_566)">
<path d="M410.462 113.006C384.303 113.006 314.614 113.007 314.614 226.362C314.614 113.005 314.614 113.006 -104 113.006C314.614 113.006 314.614 113.006 314.614 -0.350098C314.614 113.006 382.123 113.006 410.462 113.006Z" fill="white"/>
<path d="M475.734 173.95V49.4893H499.204V152.614H556.1V173.95H475.734Z" fill="white"/>
<path d="M616.634 176.439C606.44 176.439 597.669 174.602 590.32 170.927C583.089 167.134 577.518 161.8 573.607 154.925C569.814 147.931 567.917 139.693 567.917 130.211V49.4893H591.387V130.922C591.387 138.508 593.52 144.494 597.788 148.88C602.173 153.265 608.456 155.458 616.634 155.458C624.813 155.458 631.036 153.265 635.303 148.88C639.689 144.494 641.882 138.508 641.882 130.922V49.4893H665.352V130.211C665.352 139.693 663.396 147.931 659.484 154.925C655.691 161.8 650.12 167.134 642.771 170.927C635.541 174.602 626.828 176.439 616.634 176.439Z" fill="white"/>
<path d="M688.088 173.95V49.4893H732.716L757.43 157.948H760.631V49.4893H783.745V173.95H739.117L714.402 65.4913H711.202V173.95H688.088Z" fill="white"/>
<path d="M798.666 173.95L831.381 49.4893H872.275L904.991 173.95H880.81L874.053 146.568H829.603L822.847 173.95H798.666ZM835.115 124.877H868.542L853.429 64.2467H850.228L835.115 124.877Z" fill="white"/>
<path d="M963.094 176.439C953.493 176.439 945.018 174.72 937.669 171.283C930.319 167.845 924.571 162.926 920.422 156.525C916.273 150.124 914.199 142.42 914.199 133.411V128.433H937.313V133.411C937.313 140.879 939.624 146.509 944.247 150.302C948.87 153.977 955.152 155.814 963.094 155.814C971.154 155.814 977.14 154.214 981.052 151.013C985.082 147.813 987.097 143.724 987.097 138.745C987.097 135.308 986.09 132.522 984.075 130.388C982.178 128.255 979.333 126.536 975.54 125.232C971.866 123.81 967.361 122.506 962.027 121.321L957.938 120.432C949.403 118.535 942.054 116.164 935.891 113.32C929.845 110.356 925.163 106.504 921.844 101.763C918.644 97.0212 917.044 90.8575 917.044 83.2713C917.044 75.6852 918.822 69.2251 922.378 63.8911C926.052 58.4385 931.149 54.2898 937.669 51.445C944.306 48.4817 952.07 47 960.96 47C969.85 47 977.733 48.5409 984.608 51.6228C991.601 54.5862 997.054 59.0904 1000.97 65.1357C1005 71.0623 1007.01 78.53 1007.01 87.5385V92.8726H983.897V87.5385C983.897 82.7972 982.948 79.0041 981.052 76.1593C979.274 73.196 976.666 71.0623 973.229 69.7585C969.791 68.3361 965.702 67.6249 960.96 67.6249C953.848 67.6249 948.574 68.988 945.136 71.7143C941.817 74.322 940.158 77.9373 940.158 82.5601C940.158 85.642 940.928 88.2497 942.469 90.3833C944.129 92.517 946.559 94.295 949.759 95.7174C952.959 97.1398 957.049 98.3844 962.027 99.4512L966.117 100.34C975.007 102.237 982.711 104.667 989.231 107.63C995.869 110.593 1001.03 114.505 1004.7 119.365C1008.37 124.225 1010.21 130.448 1010.21 138.034C1010.21 145.62 1008.26 152.317 1004.34 158.125C1000.55 163.815 995.098 168.319 987.986 171.638C980.993 174.839 972.695 176.439 963.094 176.439Z" fill="white"/>
<path d="M1019.18 173.95L1051.9 49.4893H1092.79L1125.51 173.95H1101.32L1094.57 146.568H1050.12L1043.36 173.95H1019.18ZM1055.63 124.877H1089.06L1073.94 64.2467H1070.74L1055.63 124.877Z" fill="white"/>
<path d="M1157.75 173.95V70.8253H1121.48V49.4893H1217.49V70.8253H1181.22V173.95H1157.75Z" fill="white"/>
</g>
<defs>
<clipPath id="clip0_92_566">
<rect width="1218" height="224" fill="white"/>
</clipPath>
</defs>
</svg>
